<?xml version="1.0" encoding="UTF-8" standalone="no"?>
<!-- Created with Inkscape (http://www.inkscape.org/) -->
<svg xmlns:dc="http://purl.org/dc/elements/1.1/" xmlns:cc="http://creativecommons.org/ns#" xmlns:rdf="http://www.w3.org/1999/02/22-rdf-syntax-ns#" xmlns:svg="http://www.w3.org/2000/svg" xmlns="http://www.w3.org/2000/svg" xmlns:sodipodi="http://sodipodi.sourceforge.net/DTD/sodipodi-0.dtd" xmlns:inkscape="http://www.inkscape.org/namespaces/inkscape" id="svg2" version="1.1" inkscape:version="0.48.5 r10040" width="640" height="640" sodipodi:docname="aquachain.svg" inkscape:export-filename="/home/user/a100.png" inkscape:export-xdpi="14.0625" inkscape:export-ydpi="14.0625">
  <metadata id="metadata8">
    <rdf:RDF>
      <cc:Work rdf:about="">
        <dc:format>image/svg+xml</dc:format>
        <dc:type rdf:resource="http://purl.org/dc/dcmitype/StillImage"/>
        <dc:title/>
      </cc:Work>
    </rdf:RDF>
  </metadata>
  <defs id="defs6"/>
  <sodipodi:namedview pagecolor="#ffffff" bordercolor="#666666" borderopacity="1" objecttolerance="10" gridtolerance="10" guidetolerance="10" inkscape:pageopacity="0" inkscape:pageshadow="2" inkscape:window-width="1309" inkscape:window-height="1027" id="namedview4" showgrid="false" inkscape:zoom="0.52149125" inkscape:cx="583.33397" inkscape:cy="161.98057" inkscape:window-x="51" inkscape:window-y="51" inkscape:window-maximized="0" inkscape:current-layer="svg2"/>
  <path style="fill:#2fa4fb;stroke:#006fff;stroke-width:20.39999962;stroke-miterlimit:4;stroke-opacity:1;stroke-dasharray:none" d="m 36.54386,597.36682 c -0.22222,-19.652 -0.44444,-39.30401 -0.66666,-58.95601 97.42345,-162.30488 192.76549,-325.86106 289.04828,-488.84749 87.98003,150.864 175.93581,301.74216 263.95172,452.58523 -47.73189,-0.28835 -95.46378,-0.57671 -143.19567,-0.86506 -40.26232,-68.7985 -81.12426,-137.25932 -120.61723,-206.5 -37.85644,61.75 -75.71287,123.5 -113.56931,185.25 39.3421,-16.33735 78.66699,-32.71632 118.03133,-49 -1.01741,36.69099 -2.03483,73.38198 -3.05224,110.07297 -53.18777,18.78734 -106.12001,39.05859 -159.46743,56.91888 -43.48759,-0.21951 -86.975192,-0.43901 -130.46279,-0.65852 z" id="path3765" inkscape:connector-curvature="0" inkscape:export-filename="/home/user/a-9.png" inkscape:export-xdpi="77.754112" inkscape:export-ydpi="77.754112"/>
</svg>